PathFileType	4	(X/Y/Z)	Patient4_TMGait_0pt3_01_left_25.trc.trc
DataRate	CameraRate	NumFrames	NumMarkers	Units	OrigDataRate	OrigDataStartFrame	OrigNumFrames
50.724637681159	50.724637681159	4	33	mm	50.724637681159	124	       141
Frame#	Time	Sacral			L.Shoulder			Chest			R.Shoulder			Neck			R.ASIS			L.ASIS			R.Thigh.Superior			R.Thigh.Lateral			R.Thigh.Inferior			R.Patella			L.Thigh.Superior			L.Thigh.Lateral			L.Thigh.Inferior			L.Patella			L.Shank.Superior			L.Shank.Lateral			L.Shank.Inferior			R.Shank.Superior			R.Shank.Lateral			R.Shank.Inferior			R.Heel			R.Midfoot.Superior			R.Midfoot.Lateral			R.Toe			L.Heel			L.Midfoot.Lateral			L.Midfoot.Superior			L.Toe			L.Elbow			L.Wrist			R.Elbow			R.Wrist			
		X1	Y1	Z1	X2	Y2	Z2	X3	Y3	Z3	X4	Y4	Z4	X5	Y5	Z5	X6	Y6	Z6	X7	Y7	Z7	X8	Y8	Z8	X9	Y9	Z9	X10	Y10	Z10	X11	Y11	Z11	X12	Y12	Z12	X13	Y13	Z13	X14	Y14	Z14	X15	Y15	Z15	X16	Y16	Z16	X17	Y17	Z17	X18	Y18	Z18	X19	Y19	Z19	X20	Y20	Z20	X21	Y21	Z21	X22	Y22	Z22	X23	Y23	Z23	X24	Y24	Z24	X25	Y25	Z25	X26	Y26	Z26	X27	Y27	Z27	X28	Y28	Z28	X29	Y29	Z29	X30	Y30	Z30	X31	Y31	Z31	X32	Y32	Z32	X33	Y33	Z33	

124	49.304857142857	694.731188813582	997.681722943559	590.092627730677	832.075067573726	1417.864436193908	365.198969777157	970.198104406576	1349.772145095436	497.900772049419	934.572292564431	1432.327173698468	682.884013484683	857.797503243640	1483.187306705496	519.222840726708	939.035054015959	929.262079612419	662.579143604056	876.891973309519	951.757315408986	394.711927216565	944.996239775668	719.796780254303	625.970663542829	853.993343751998	615.649938822973	691.104717631923	911.708916785062	558.296927991680	601.953097647490	897.933087089919	466.817016578958	606.218495482562	957.151358133360	762.321516797447	414.986334450860	895.836631811261	635.408190912526	344.365862417459	1002.742241310822	575.433429531421	398.527428951110	1024.798478846101	506.663943431392	393.929379494557	1000.914538612149	433.937894692842	381.605465502399	919.761661300071	314.466729000111	326.770208302700	994.965994201658	203.691777386003	375.766535557238	848.954945288597	384.144332892738	611.308004412670	761.355757009664	294.018726444620	675.443020370401	776.699114410398	196.805453142375	604.761480114180	614.277912749809	46.469682868975	573.346010041352	787.470929425172	95.999535817191	608.933238455925	697.608639866717	37.345120099483	647.198577191587	905.847107300465	39.928264070648	635.920196999998	888.744463566777	38.450815536461	408.635399961569	961.108089742040	38.031291847557	326.823476507892	1042.681920659485	102.849480671458	350.697558722111	1170.380569685723	57.120093052945	318.902971250140	661.019127269645	1104.838297611419	308.518476065434	612.955377973355	849.955995374591	349.760156472004	1115.760958905975	1151.820359036863	802.288931962262	1372.250708158025	1148.426574256856	765.983653557986	
125	49.324571428571	695.349843956537	997.516267589587	587.117154431447	833.301325210427	1416.685362519109	360.503806225587	971.687703269262	1348.539410609739	492.991780391864	936.617613471170	1431.673408275421	677.820991199887	859.338781958979	1482.339864068716	514.245559422204	939.850866305036	928.426899530858	658.931973013050	876.635908070558	950.531200121302	391.328458235404	944.528659161081	718.750579616972	623.119756099291	852.825170173092	615.396756971834	688.840485838986	909.910175715800	557.319961209959	599.884787172295	895.248775687317	465.899077885953	604.504499490849	956.860168314077	760.954126903992	411.555074676569	894.193561596617	633.864373232022	342.352302496868	1001.742379885810	574.185725253472	395.490903212789	1022.849226492441	504.933702595984	391.649845814703	999.070342931347	432.083111836705	379.775121636110	917.320138344622	312.876577662973	325.766598889254	991.400182462406	201.959658985701	375.326019436987	845.702003743891	383.620120976800	610.036598479609	757.383317805518	294.509963334839	674.640009460888	771.987398437407	196.857911012689	604.426765371133	608.482510816019	47.225295571821	573.633894754552	781.917709096550	96.150853698256	609.051796099519	691.867282989399	37.638030835413	647.376454079662	900.065139620530	39.673723627424	635.959737358106	883.618537200922	38.266273412841	409.187854499032	955.571085283640	37.292781651394	326.999388314747	1037.948072236750	101.013684980452	350.703451939275	1165.137449597146	53.677886908211	318.205780014627	664.486436454624	1102.151829634575	305.028808101434	617.065256083737	847.086611032252	346.770979546748	1120.992171341367	1154.037273798754	796.956025066738	1377.264641764950	1155.820618772956	758.311100654454	
126	49.344285714286	696.088168341421	997.499648472400	583.776610289721	834.665359848948	1415.713531174486	355.658286290454	973.293085093910	1347.484041514114	487.945021952472	938.729308931126	1431.139415097737	672.641555574614	860.962940374838	1481.640768133473	509.113324175532	940.724079472233	927.723199235620	654.985872747104	876.617719306930	949.535966933328	387.632357679794	944.162527415700	717.826258977758	620.096869126359	851.773279211060	615.269907232614	686.393911867874	908.300741920702	556.460206333703	597.684859650170	892.776934203375	465.067932046573	602.688932118902	957.179460256205	760.225306408829	408.325288393863	893.854624761141	632.850489905272	340.214182824496	1001.842769425626	573.475287762580	392.667942827733	1022.046007018067	503.569279795128	389.517344997852	998.143075079316	430.504009781625	378.093968869473	915.521492428656	311.851046437542	324.689850261045	987.835530858326	200.532010516655	375.022693975729	842.639396728591	383.220973802660	608.716358718460	753.531160078223	295.189083746638	673.795556987299	767.404219174775	197.059437835823	604.125781077307	602.738733324088	48.238502859043	573.993670473866	776.479571283395	96.364737123018	609.230729462805	686.180083703044	38.041454893577	647.601000270617	894.330847115113	39.386281828849	636.009757524504	877.904992323919	38.420358254566	409.684147154831	949.521337610476	36.907033758163	327.199396878555	1032.710320886358	99.546857419766	350.805475512434	1159.418557719614	50.513740073497	317.664233666276	668.509734135553	1099.411555231821	300.908137720397	622.128031199402	844.094135939404	342.672581508874	1125.790824414158	1156.050333910184	791.561122102623	1381.884471709565	1161.851549802077	751.053405368267	
127	49.364000000000	696.947942899511	997.680673067480	580.015930619086	836.161211920818	1415.023071952081	350.690013852497	974.999265031720	1346.669374773537	482.788201729304	940.880944482111	1430.769064645108	667.375089476034	862.655466834041	1481.142681843221	503.875727607341	941.631407958807	927.200630198689	650.748807770915	876.892062092272	948.810697346345	383.608922083107	943.797666405405	717.059633561456	616.936551050289	850.691734321136	615.338901527153	683.798669900959	906.735234583957	555.762445354356	595.405970661097	890.368315827176	464.392123356642	600.831436847957	958.064358565937	760.085944222880	405.304478471996	894.698153610019	632.335149288021	337.919799502650	1002.863181118607	573.202098598428	390.079256715623	1022.233496082508	502.537002359846	387.548122976888	998.000719176975	429.195596219753	376.563998727408	914.335987622913	311.314723708903	323.535070001208	984.373775604706	199.413763434390	374.844379821938	839.646829608283	383.005948267563	607.389965654398	749.695026731371	296.092616362204	672.929654789565	762.896377860790	197.447103709520	603.881105168000	597.044389458423	49.530211957629	574.421111400603	771.146888414971	96.643157451306	609.472993868259	680.535064826314	38.568750424754	647.870627717732	888.632241634742	39.075759863341	636.069650346342	871.883327573315	38.817521741602	410.085137613029	943.253302987854	36.828366197318	327.399298860654	1027.199761528174	98.474954003456	350.980883376348	1153.485582328840	47.769089741387	317.282013516280	672.833456092258	1096.877909419830	296.143405493092	627.969320820550	841.224478533068	337.484768134527	1130.213773532975	1157.917206361925	786.084089126198	1386.228745156674	1166.502177480400	744.283364377385	
